<?xml version="1.0" encoding="UTF-8" standalone="no"?>
<!-- Created with Inkscape (http://www.inkscape.org/) -->

<svg
   width="210mm"
   height="297mm"
   viewBox="0 0 210 297"
   version="1.1"
   id="svg5"
   inkscape:version="1.2.2 (732a01da63, 2022-12-09)"
   sodipodi:docname="firstink.svg"
   xmlns:inkscape="http://www.inkscape.org/namespaces/inkscape"
   xmlns:sodipodi="http://sodipodi.sourceforge.net/DTD/sodipodi-0.dtd"
   xmlns="http://www.w3.org/2000/svg"
   xmlns:svg="http://www.w3.org/2000/svg"
   xmlns:rdf="http://www.w3.org/1999/02/22-rdf-syntax-ns#"
   xmlns:cc="http://creativecommons.org/ns#"
   xmlns:dc="http://purl.org/dc/elements/1.1/">
  <title
     id="title675">InkScape</title>
  <sodipodi:namedview
     id="namedview7"
     pagecolor="#ffffff"
     bordercolor="#000000"
     borderopacity="0.25"
     inkscape:showpageshadow="2"
     inkscape:pageopacity="0.0"
     inkscape:pagecheckerboard="0"
     inkscape:deskcolor="#d1d1d1"
     inkscape:document-units="mm"
     showgrid="false"
     inkscape:zoom="1.5540715"
     inkscape:cx="413.75187"
     inkscape:cy="205.91073"
     inkscape:window-width="1366"
     inkscape:window-height="705"
     inkscape:window-x="-8"
     inkscape:window-y="-8"
     inkscape:window-maximized="1"
     inkscape:current-layer="layer1" />
  <defs
     id="defs2">
    <inkscape:path-effect
       effect="bspline"
       id="path-effect671"
       is_visible="true"
       lpeversion="1"
       weight="33.333333"
       steps="2"
       helper_size="0"
       apply_no_weight="true"
       apply_with_weight="true"
       only_selected="false" />
  </defs>
  <g
     inkscape:label="Layer 1"
     inkscape:groupmode="layer"
     id="layer1"
     style="display:inline">
    <path
       style="opacity:1;fill:navy;fill-opacity:0.940909;stroke-width:0.264583"
       d="m 59.9286,10.044851 c -7.022524,-7.0225245 -22.771524,-7.0225245 -29.794048,0 -11.797841,11.797841 -11.797841,38.25616 0,50.054001 7.062653,7.062653 22.901647,7.062653 29.9643,0 2.407723,-2.407723 2.407723,-7.807379 0,-10.215102 -4.735188,-4.735188 -15.354513,4.735188 -20.089701,0 -7.062653,-7.062653 -7.062653,-22.901647 0,-29.9643 4.695059,-4.695059 15.22439,4.695059 19.919449,0 2.327465,-2.327465 2.327465,-7.547134 0,-9.874599 z"
       id="path663"
       sodipodi:nodetypes="sssssssss" />
    <path
       style="opacity:1;fill:navy;fill-opacity:0.940909;stroke-width:0.264583"
       d="m 70.143702,10.044851 c 0,0 -2.497716,7.637128 -0.170251,10.04485 2.326129,2.40634 10.039083,0.170154 10.039083,0.170154 0,0 6.674498,23.021388 -0.507871,29.96435 -1.061417,1.026037 -3.402122,0.986367 -4.428159,-0.07505 -1.163064,-1.20317 1.248144,-3.81637 0.08508,-5.01954 -1.161059,-1.201096 -3.809791,-1.245989 -5.010886,-0.08493 -3.608126,3.487856 -3.742988,11.444725 -0.255132,15.052852 4.666962,4.827892 15.313736,5.008346 20.141628,0.341384 9.672379,-9.349967 0.68394,-40.35249 0.68394,-40.35249 0,0 7.132664,2.332732 9.381346,0.159005 2.44368,-2.362224 2.53501,-7.751181 0.17279,-10.19486 C 93.295547,2.8301764 77.372687,2.5603207 70.152262,9.5400168 c -0.121008,0.1169734 -0.0086,0.5048342 -0.0086,0.5048342 z"
       id="path665"
       sodipodi:nodetypes="cscsssssscssscc" />
    <path
       style="opacity:1;fill:navy;fill-opacity:0.940909;stroke-width:0.264583"
       d="m 110.15286,9.5400166 c -11.996987,11.9969864 -11.996987,38.9019174 0,50.8989044 7.10278,7.102782 23.03177,7.102782 30.13455,0 2.44775,-2.447749 2.44775,-7.937171 0,-10.38492 -4.77532,-4.775316 -15.47461,4.765271 -20.25995,0 -9.56937,-9.529236 9.39911,-30.984749 -0.17026,-40.5139844 -2.29214,-2.2825236 -7.41701,-2.2873349 -9.70434,0 z"
       id="path667"
       sodipodi:nodetypes="sssssss" />
    <path
       style="opacity:1;fill:navy;fill-opacity:0.940909;stroke-width:0.241591"
       d="m 21.902411,46.19492 c 0.154945,4.367125 0.3099,8.734501 3.48454,13.578713 3.174639,4.844211 9.368381,10.165244 19.821593,12.896626 10.453212,2.731381 25.164778,2.873062 38.085701,2.993707 12.920923,0.120644 24.049825,0.22024 33.274925,-1.029557 9.2251,-1.249797 16.5457,-3.848847 21.7038,-8.839643 5.15811,-4.990797 8.15371,-12.373294 11.14932,-19.755815 0,0 11.52527,6.043366 11.52527,6.043366 -6.88672,8.930779 -13.77331,17.861393 -21.1948,23.274959 -7.42148,5.413566 -15.37748,7.309721 -32.61156,7.91514 C 89.907123,83.877835 63.396887,83.192483 48.643186,81.268755 33.889484,79.345026 30.894669,76.182976 27.071,73.021019 23.247332,69.859061 18.595363,66.697759 16.015603,61.63088 13.435844,56.564001 12.928929,49.591761 12.422023,42.619634 c 0,0 9.480388,3.575286 9.480388,3.575286 z"
       id="path669"
       inkscape:path-effect="#path-effect671"
       inkscape:original-d="m 21.902411,46.19492 c 0,0 0.310132,8.734493 0.464836,13.101375 6.194325,5.321571 12.388067,10.642603 18.581873,15.963654 14.712633,0.141953 29.424199,0.283634 44.136298,0.425058 11.129748,0.09987 22.258652,0.199461 33.387852,0.298797 7.32111,-2.598875 14.64171,-5.197923 21.96219,-7.79729 2.99591,-7.382427 8.98683,-22.147563 8.98683,-22.147563 l 11.52527,6.043366 c 0,0 -13.77301,17.861621 -20.66015,26.792337 -7.95606,1.896499 -15.91206,3.792653 -23.86845,5.688574 C 89.907116,83.878092 63.39688,83.19274 36.884294,82.50707 33.889492,79.345019 30.894676,76.182969 27.899353,73.020398 23.247293,69.859119 18.595323,66.697817 13.942742,63.536014 13.436088,56.563983 12.422023,42.619634 12.422023,42.619634 Z"
       sodipodi:nodetypes="ccccccccccccccc" />
  </g>
  <metadata
     id="metadata673">
    <rdf:RDF>
      <cc:Work
         rdf:about="">
        <dc:title>InkScape</dc:title>
      </cc:Work>
    </rdf:RDF>
  </metadata>
</svg>
