 <svg width="30" height="30" viewBox="0 -6.11 63.999 63.999" xmlns="http://www.w3.org/2000/svg">
<g transform="translate(-621.981 -741.117)">
<g>
<path d="M681.869,792.887H624.11a2.131,2.131,0,0,1-1.883-3.128l15.641-29.62a2.13,2.13,0,0,1,3.51-.382l9.287,10.975,11.891-17.688a2.132,2.132,0,0,1,3.691.266l17.544,36.524a2.132,2.132,0,0,1-1.922,3.053Zm-56.318-3h54.937L664.2,755.977l-12.152,18.076a1.5,1.5,0,0,1-2.39.132l-9.738-11.508Z" fill="black"/>
</g>
<g id="Group_40" >
<path d="M676.736,759.607a9.241,9.241,0,1,1,9.244-9.245A9.255,9.255,0,0,1,676.736,759.607Zm0-15.49a6.253,6.253,0,1,0,4.413,1.832A6.252,6.252,0,0,0,676.736,744.117Z" fill="black"/>
</g>
</g>
</svg>